# xmcd
# 
# Track frame offsets:
#     150
#     22480
#     44202
#     59947
#     78562
#     104332
#     119632
#     138092
#     155970
#     176825
#     197677
#     219042
#     239362
#     257585
# 
# Disc length: 3686
# 
# Revision: 8
# Processed by: cddbd v1.5.2PL0 Copyright (c) Steve Scherf et al.
# Submitted via: fre:ac v1.0.27
# 
DISCID=dd0e640e
DTITLE=Zucchero (Adelmo Fornaciari) - Zucchero and Co
DYEAR=2005
DGENRE=Blues Rock
TTITLE0=I Lay Down (with John Lee Hooker)
TTITLE1=Blue (with Sheryl Crow)
TTITLE2=Pure Love (with Dolores O'Riordan)
TTITLE3=Baila Morena (with Mana)
TTITLE4=Dune Mosse (with Miles Davis)
TTITLE5=Muoio Per Te (with Sting)
TTITLE6=Everybody's Got To Learn Sometime (with Vanessa Carlton ft Haylie Ecker)
TTITLE7=Like The Sun - From Out of Nowhere (with Macy Gray ft Jeff Beck)
TTITLE8=A Wonderful World (with Eric Clapton)
TTITLE9=Hey Man - Sing a Song (with BB King)
TTITLE10=Cosi Celeste (with Cheb Mami)
TTITLE11=Senza Una Donna (with Paul Young)
TTITLE12=Diavolo In Me (with Solomon Burke)
TTITLE13=Miserere (with Luciano Pavarotti and Andrea Bocelli)
EXTD=YEAR: 2005
EXTT0=
EXTT1=
EXTT2=
EXTT3=
EXTT4=
EXTT5=
EXTT6=
EXTT7=
EXTT8=
EXTT9=
EXTT10=
EXTT11=
EXTT12=
EXTT13=
PLAYORDER=
